<svg width="110" height="110" viewBox="0 0 110 110" fill="none" xmlns="http://www.w3.org/2000/svg">
<path d="M29.2821 40.7129L54.6411 26.0719L80.0001 40.7129L80.0001 69.9949L54.6411 84.636L29.2821 69.9949L29.2821 40.7129Z" fill="#CC0019" fill-opacity="0.9"/>
<path d="M39.9265 68.2053L36.7569 70.0353L33.5819 64.536L36.7082 62.731L37.1532 63.5018L34.7716 64.8768L34.8302 64.6582L35.8852 66.4855L35.6666 66.427L37.8837 65.147L38.3237 65.9091L36.1066 67.1891L36.1702 66.9792L37.2752 68.8931L37.0566 68.8345L39.4815 67.4345L39.9265 68.2053ZM41.6426 59.8822C41.8562 59.7588 42.033 59.7184 42.1729 59.7607C42.3095 59.7973 42.4362 59.9167 42.5528 60.1187L45.3978 65.0464L44.5491 65.5364L41.9741 61.0764L42.1473 60.9764L42.3011 64.5827L41.7814 64.8827L38.8718 62.983L39.019 62.898L41.544 67.2714L40.7559 67.7264L37.5809 62.2272L38.0659 61.9472C38.2218 61.8572 38.3494 61.8181 38.4487 61.8301C38.5446 61.8363 38.661 61.8846 38.7978 61.9749L41.7795 63.8792L41.5716 63.9992L41.3828 60.0322L41.6426 59.8822ZM49.7116 62.5559L46.5419 64.3859L43.3669 58.8866L46.4933 57.0816L46.9383 57.8524L44.5567 59.2274L44.6153 59.0088L45.6703 60.8361L45.4517 60.7776L47.6687 59.4976L48.1087 60.2597L45.8917 61.5397L45.9553 61.3298L47.0603 63.2437L46.8417 63.1851L49.2666 61.7851L49.7116 62.5559ZM51.5023 61.522L50.6103 62.037L47.4353 56.5378L49.7362 55.1631C50.1626 54.9016 50.5438 54.8085 50.8798 54.8839C51.2159 54.9593 51.4989 55.1962 51.7289 55.5946L52.2939 56.5732C52.4839 56.9023 52.5523 57.2207 52.4991 57.5286C52.4426 57.8306 52.2532 58.1093 51.931 58.3646L51.8347 58.1778C52.0164 58.1191 52.1834 58.115 52.3358 58.1656C52.4906 58.2071 52.6609 58.3089 52.8469 58.4709L54.4295 59.832L53.5374 60.347L51.6646 58.7032C51.6297 58.6694 51.5986 58.6489 51.5713 58.6416C51.544 58.6343 51.5073 58.6439 51.4611 58.6706L50.0841 59.4656L50.1586 59.2147L51.5023 61.522ZM48.6486 56.5993L49.8936 58.7557L49.6701 58.6885L51.5407 57.6085C51.6157 57.5652 51.6316 57.506 51.5883 57.4309L50.6533 55.8115C50.6099 55.7364 50.5507 55.7205 50.4757 55.7639L48.6137 56.8389L48.6486 56.5993ZM57.7166 58.0266L56.4955 58.7316C56.0798 58.9716 55.7164 59.0621 55.4052 59.0031C55.0998 58.9408 54.8354 58.7162 54.6121 58.3294L52.6471 54.9259C52.4204 54.5333 52.3581 54.1921 52.4602 53.9022C52.5647 53.6032 52.8248 53.3337 53.2405 53.0937L55.6047 51.7287L56.0647 52.5255L53.458 54.0305C53.3945 54.0672 53.3811 54.1172 53.4177 54.1807L55.6427 58.0346C55.6794 58.0981 55.7295 58.1115 55.793 58.0748L57.551 57.0598C57.6088 57.0265 57.6193 56.9781 57.5826 56.9146L56.6976 55.3817L56.8866 55.4689L55.9253 56.0239L55.4953 55.2791L57.21 54.2891L58.31 56.1944C58.5333 56.5812 58.5956 56.9225 58.4969 57.2181C58.3981 57.5137 58.138 57.7832 57.7166 58.0266ZM63.1248 54.8117L59.9552 56.6417L56.7802 51.1425L59.9065 49.3375L60.3515 50.1082L57.97 51.4832L58.0285 51.2647L59.0835 53.092L58.865 53.0334L61.082 51.7534L61.522 52.5155L59.305 53.7955L59.3685 53.5856L60.4735 55.4995L60.255 55.441L62.6798 54.041L63.1248 54.8117ZM66.3479 51.2188L63.9229 47.0186L64.6937 46.5736L67.8687 52.0729L67.2538 52.4279L62.1518 49.8309L62.2863 49.684L64.7163 53.8929L63.9542 54.3329L60.7792 48.8336L61.3941 48.4786L66.4775 51.0632L66.3479 51.2188ZM71.5836 48.8657L72.0436 49.6625L70.173 50.7425C69.7515 50.9858 69.3852 51.078 69.074 51.019C68.7686 50.9567 68.5059 50.735 68.2859 50.354L66.3909 47.0717C66.1676 46.6849 66.1069 46.3466 66.209 46.0567C66.3135 45.7577 66.5765 45.4866 66.998 45.2432L68.8686 44.1632L69.3286 44.96L67.2155 46.18C67.152 46.2166 67.1386 46.2667 67.1752 46.3302L69.3202 50.0455C69.3569 50.109 69.407 50.1224 69.4705 50.0857L71.5836 48.8657ZM73.2083 45.2488L72.6665 41.9705L73.5585 41.4555L74.077 44.7935C74.1204 45.0686 74.1396 45.2885 74.1345 45.4531C74.1261 45.6119 74.0717 45.751 73.9714 45.8706C73.8677 45.9843 73.6917 46.1129 73.4435 46.2562L73.3395 46.3162C73.0971 46.4562 72.8932 46.5431 72.728 46.5769C72.5652 46.6016 72.4055 46.5783 72.2489 46.5071C72.0981 46.4325 71.9222 46.3146 71.7214 46.1535L69.1072 44.0255L70.0425 43.4855L72.6194 45.5888C72.6734 45.6423 72.7263 45.6541 72.7783 45.6241L73.1507 45.4091C73.2027 45.3791 73.2219 45.3257 73.2083 45.2488ZM74.9409 47.9897L74.0575 48.4997L72.6225 46.0143L73.5059 45.5043L74.9409 47.9897Z" fill="black"/>
<path d="M46.0617 39.9686L51.5521 43.1385L46.0617 46.3083L46.0617 39.9686Z" fill="black"/>
<path d="M63.6932 70.507L58.2028 67.3371L63.6932 64.1673L63.6932 70.507Z" fill="black"/>
</svg>
