<svg width="240" height="127" viewBox="0 0 240 127" fill="none" xmlns="http://www.w3.org/2000/svg">
<path d="M8.99998 118H230V10H8.99998V118Z" fill="black"/>
<path opacity="0.22" d="M13.6247 108.41H226.48V18.4599H13.6247V108.41Z" fill="#F16A01" fill-opacity="0.9"/>
<path d="M15.53 18.46H23.46V14.8H15.53V18.46Z" fill="#F16A01" fill-opacity="0.9"/>
<path d="M11.25 112.07H15.52V14.7999H11.25V112.07Z" fill="#F16A01" fill-opacity="0.9"/>
<path d="M15.53 112.07H23.46V108.41H15.53V112.07Z" fill="#F16A01" fill-opacity="0.9"/>
<path d="M215.63 112.07H223.56V108.41H215.63V112.07Z" fill="#F16A01" fill-opacity="0.9"/>
<path d="M223.56 112.07H227.83V14.7999H223.56V112.07Z" fill="#F16A01" fill-opacity="0.9"/>
<path d="M230.28 112.07H232.72V14.7999H230.28V112.07Z" fill="#F16A01" fill-opacity="0.9"/>
<path d="M6.37006 112.07H8.81006V14.7999H6.37006V112.07Z" fill="#F16A01" fill-opacity="0.9"/>
<path d="M215.63 18.46H223.56V14.8H215.63V18.46Z" fill="#F16A01" fill-opacity="0.9"/>
<path d="M118.81 9.63989H118.96H227.13L218.13 7.0799H192.38L188.62 4.45989H154.86L149.63 8.09989H118.96H118.81H88.1301L82.9101 4.45989H49.1501L45.3901 7.0799H19.6301L10.6401 9.63989H118.81Z" fill="#F16A01" fill-opacity="0.9"/>
<path d="M169.84 0.529831H61.1001L57.7801 2.83983H85.9601L91.3201 6.57983H146.01L150.42 3.50983C150.42 3.50983 173.8 3.31983 174.07 3.50983L169.84 0.529831Z" fill="#F16A01" fill-opacity="0.9"/>
<path d="M118.96 117.6H118.81H10.6401L19.6301 120.16H45.3901L49.1501 122.78H82.9101L88.1301 119.14H118.81H118.96H149.63L154.86 122.78H188.62L192.38 120.16H218.13L227.13 117.6H118.96Z" fill="#F16A01" fill-opacity="0.9"/>
<path d="M67.9302 126.71H176.66L179.98 124.4H151.8L146.44 120.66H91.7502L87.3402 123.73C87.3402 123.73 63.9602 123.92 63.6902 123.73L67.9202 126.71H67.9302Z" fill="#F16A01" fill-opacity="0.9"/>
<path d="M4.66992 15.9699L-7.62939e-05 20.6399V106.4L4.47992 110.89L4.66992 15.9699Z" fill="#F16A01" fill-opacity="0.9"/>
<path d="M234.36 110.89L239.03 106.22V20.4599L234.54 15.9699L234.36 110.89Z" fill="#F16A01" fill-opacity="0.9"/>
<path d="M45.8802 102.02H191.85L199.71 109.88H211.9V110.6H199.41L191.55 102.74H46.1801L37.9702 110.95H28.5002V110.23H37.6801L45.8802 102.02Z" fill="#F16A01" fill-opacity="0.9"/>
<path d="M202.42 15.6099H211.9V16.3299H202.72L194.51 24.5399H48.5401L40.6801 16.6799H28.5002V15.9599H40.9801L48.8401 23.8199H194.21L202.42 15.6099Z" fill="#F16A01" fill-opacity="0.9"/>
</svg>
