<svg width="240" height="347" viewBox="0 0 240 347" fill="none" xmlns="http://www.w3.org/2000/svg">
<path d="M8.99998 338H230V230H8.99998V338Z" fill="black"/>
<path opacity="0.22" d="M13.6247 328.41H226.48V238.46H13.6247V328.41Z" fill="#F16A01" fill-opacity="0.9"/>
<path d="M15.53 238.46H23.46V234.8H15.53V238.46Z" fill="#F16A01" fill-opacity="0.9"/>
<path d="M11.25 332.07H15.52V234.8H11.25V332.07Z" fill="#F16A01" fill-opacity="0.9"/>
<path d="M15.53 332.07H23.46V328.41H15.53V332.07Z" fill="#F16A01" fill-opacity="0.9"/>
<path d="M215.63 332.07H223.56V328.41H215.63V332.07Z" fill="#F16A01" fill-opacity="0.9"/>
<path d="M223.56 332.07H227.83V234.8H223.56V332.07Z" fill="#F16A01" fill-opacity="0.9"/>
<path d="M230.28 332.07H232.72V234.8H230.28V332.07Z" fill="#F16A01" fill-opacity="0.9"/>
<path d="M6.37006 332.07H8.81006V234.8H6.37006V332.07Z" fill="#F16A01" fill-opacity="0.9"/>
<path d="M215.63 238.46H223.56V234.8H215.63V238.46Z" fill="#F16A01" fill-opacity="0.9"/>
<path d="M118.81 229.64H118.96H227.13L218.13 227.08H192.38L188.62 224.46H154.86L149.63 228.1H118.96H118.81H88.1301L82.9101 224.46H49.1501L45.3901 227.08H19.6301L10.6401 229.64H118.81Z" fill="#F16A01" fill-opacity="0.9"/>
<path d="M169.84 220.53H61.1001L57.7801 222.84H85.9601L91.3201 226.58H146.01L150.42 223.51C150.42 223.51 173.8 223.32 174.07 223.51L169.84 220.53Z" fill="#F16A01" fill-opacity="0.9"/>
<path d="M118.96 337.6H118.81H10.6401L19.6301 340.16H45.3901L49.1501 342.78H82.9101L88.1301 339.14H118.81H118.96H149.63L154.86 342.78H188.62L192.38 340.16H218.13L227.13 337.6H118.96Z" fill="#F16A01" fill-opacity="0.9"/>
<path d="M67.9302 346.71H176.66L179.98 344.4H151.8L146.44 340.66H91.7502L87.3402 343.73C87.3402 343.73 63.9602 343.92 63.6902 343.73L67.9202 346.71H67.9302Z" fill="#F16A01" fill-opacity="0.9"/>
<path d="M4.66992 235.97L-7.62939e-05 240.64V326.4L4.47992 330.89L4.66992 235.97Z" fill="#F16A01" fill-opacity="0.9"/>
<path d="M234.36 330.89L239.03 326.22V240.46L234.54 235.97L234.36 330.89Z" fill="#F16A01" fill-opacity="0.9"/>
<path d="M45.8802 322.02H191.85L199.71 329.88H211.9V330.6H199.41L191.55 322.74H46.1801L37.9702 330.95H28.5002V330.23H37.6801L45.8802 322.02Z" fill="#F16A01" fill-opacity="0.9"/>
<path d="M202.42 235.61H211.9V236.33H202.72L194.51 244.54H48.5401L40.6801 236.68H28.5002V235.96H40.9801L48.8401 243.82H194.21L202.42 235.61Z" fill="#F16A01" fill-opacity="0.9"/>
<path d="M21.3499 14.5001H23.0599L23.06 178.79L60.87 216.59H170.51V218.31H60.16L21.35 179.5L21.3499 14.5001Z" fill="#F16A01" fill-opacity="0.9"/>
<path d="M17.7399 9.15527e-05H26.6799L31.1499 7.7401L26.6799 15.4801H17.7399L13.2699 7.7401L17.7399 9.15527e-05ZM25.6899 1.72009H18.7299L15.2499 7.75009L18.7299 13.7801H25.6899L29.1699 7.75009L25.6899 1.72009Z" fill="#F16A01" fill-opacity="0.9"/>
<path d="M20.9999 9.83008H23.4099L24.6199 7.74008L23.4099 5.66008H20.9999L19.7899 7.74008L20.9999 9.83008Z" fill="#F16A01" fill-opacity="0.9"/>
<g filter="url(#filter0_d_3_2)">
<g filter="url(#filter1_d_3_2)">
<path d="M23.04 269.94H37.58L39.14 268C39.14 268 40.9 269.3 41.98 270.18C41.92 270.4 41.7 270.5 41.4 270.5H23.2L23.04 269.94ZM24.82 266.34H36.28L37.8 264.44C37.8 264.44 39.54 265.7 40.58 266.58C40.52 266.8 40.3 266.9 40 266.9H24.98L24.82 266.34ZM30.96 262.92L34.62 263.2C34.58 263.48 34.44 263.68 33.9 263.78V270.14H30.96V262.92ZM33.38 269.94H36.22V278.58C36.22 280.42 35.74 281.66 32.66 281.88C32.62 280.98 32.5 280.3 32.14 279.88C31.8 279.48 31.36 279.18 30.18 278.98V278.72C30.18 278.72 32.5 278.86 32.98 278.86C33.28 278.86 33.38 278.72 33.38 278.5V269.94ZM36.9 271.96C44 274.08 41.5 279.64 38.78 277.38C38.54 275.54 37.66 273.56 36.72 272.06L36.9 271.96ZM26.04 271.9L29.28 273.2C29.18 273.44 28.9 273.6 28.46 273.56C27.06 275.88 25.18 277.44 23.12 278.44L22.92 278.26C24.14 276.78 25.38 274.38 26.04 271.9ZM29 269.94H31.84C31.68 275.18 31.38 279.24 24.68 281.86L24.48 281.6C29.1 278.42 28.96 274.6 29 269.94ZM43.92 275.6C44.22 275.6 44.3 275.6 44.52 275.2C44.92 274.5 44.92 274.5 47.7 267.68L48.02 267.74C47.52 269.8 46.7 273.58 46.52 274.56C46.4 275.18 46.3 275.88 46.32 276.36C46.38 277.52 47.28 278.22 47.2 280.1C47.16 281.16 46.4 281.86 45.38 281.86C44.92 281.86 44.36 281.6 44.2 280.8C44.6 278.66 44.52 276.62 44.08 276.3C43.8 276.1 43.48 276 43.06 275.96V275.6C43.06 275.6 43.7 275.6 43.92 275.6ZM44.12 263.06C49.84 263.96 47.58 268.22 45.34 266.54C45.16 265.34 44.52 264.06 43.96 263.16L44.12 263.06ZM43.04 267.62C48.38 268.66 46.04 272.68 43.96 270.96C43.92 269.82 43.42 268.56 42.86 267.72L43.04 267.62ZM49.4 271.4H52.98V271.96H49.4V271.4ZM49.54 274.18H53.02V274.74H49.54V274.18ZM47.86 265.98H52.58L53.62 264.34C53.62 264.34 54.8 265.48 55.46 266.22C55.4 266.44 55.2 266.54 54.92 266.54H48.02L47.86 265.98ZM47.1 277.1H52.48L53.52 275.38C53.52 275.38 54.74 276.58 55.38 277.34C55.32 277.56 55.12 277.66 54.84 277.66H47.26L47.1 277.1ZM56.74 264.52H59.94V265.08H56.74V264.52ZM56.74 268.88H59.94V269.44H56.74V268.88ZM56.74 273.36H59.84V273.92H56.74V273.36ZM58.72 264.52H58.52L59.66 263.22L62 265.06C61.86 265.22 61.62 265.38 61.24 265.46V279C61.24 280.72 60.9 281.64 58.3 281.88C58.26 281.06 58.18 280.44 57.96 280.08C57.74 279.72 57.42 279.44 56.64 279.28V279.02C56.64 279.02 58.04 279.1 58.36 279.1C58.66 279.1 58.72 278.98 58.72 278.74V264.52ZM55.28 264.52V264.32V263.56L57.96 264.52H57.58V271.68C57.58 275.42 57.3 279.34 52.86 281.9L52.66 281.74C55.04 279.02 55.28 275.5 55.28 271.68V264.52ZM50.12 263.1L53.1 263.36C53.08 263.58 52.94 263.74 52.54 263.82V268.82H50.12V263.1ZM50.1 274.18H52.52V281.28C52.5 281.38 51.78 281.78 50.54 281.78H50.1V274.18ZM48.22 268.66V267.74L50.52 268.66H53.22V269.22H50.44V274.54C50.44 274.74 49.48 275.24 48.54 275.24H48.22V268.66ZM52.18 268.66H52.54L53.48 267.62L55.18 269.32C55.04 269.48 54.76 269.6 54.46 269.66V274.5C54.42 274.6 53.54 275.02 52.6 275.02H52.18V268.66ZM64.22 274.92H76.88L78.3 273.04C78.3 273.04 79.9 274.3 80.86 275.16C80.8 275.38 80.58 275.48 80.28 275.48H64.38L64.22 274.92ZM67.14 270.96H73.82L75.1 269.18C75.1 269.18 76.54 270.38 77.38 271.2C77.32 271.42 77.1 271.52 76.82 271.52H67.3L67.14 270.96ZM65.26 264.38H71.9V264.94H65.44L65.26 264.38ZM69.56 264.38H69.32L70.82 262.9L73.34 265.06C73.2 265.28 73.02 265.34 72.56 265.4C71.06 269 68.02 271.88 63.08 273.26L62.96 273.04C66.42 271.1 68.7 267.86 69.56 264.38ZM64.62 265.9C70.54 266.16 67.92 270.74 65.54 268.86C65.56 267.82 65.1 266.68 64.48 266L64.62 265.9ZM73.26 262.78C74.7 266.9 78.58 268.96 82.3 270.12L82.24 270.36C81.06 270.56 80.2 271.44 79.76 272.78C76.38 270.78 74.08 268 73.02 262.9L73.26 262.78ZM76.48 263.08L79.32 264.72C79.22 264.92 79.04 265.04 78.56 264.98C77.58 265.56 76 266.22 74.66 266.62L74.46 266.42C75.22 265.46 76.1 263.96 76.48 263.08ZM79.22 265.22L82.02 266.92C81.92 267.1 81.74 267.22 81.26 267.16C80.22 267.64 78.52 268.16 77.12 268.42L76.94 268.22C77.78 267.38 78.78 266.02 79.22 265.22ZM68.42 271.16H71.36V274.28C71.34 276.92 70.62 280.26 63.32 281.84L63.22 281.66C67.72 279.6 68.42 276.92 68.42 274.3V271.16ZM73.44 271.16H76.28C76.28 271.4 76.28 271.72 76.28 271.9V278.38C76.28 278.68 76.36 278.78 76.82 278.78H78.02C78.4 278.78 78.76 278.78 78.98 278.78C79.2 278.76 79.38 278.72 79.54 278.56C79.76 278.26 80.12 277.48 80.48 276.54H80.68L80.76 278.62C81.46 278.94 81.64 279.28 81.64 279.82C81.64 280.96 80.72 281.48 77.68 281.48H76.04C73.9 281.48 73.44 280.98 73.44 279.14V271.16ZM83 280.26H97.34L99 278.16C99 278.16 100.86 279.56 101.98 280.5C101.92 280.72 101.7 280.82 101.38 280.82H83.16L83 280.26ZM85.44 273.58H95.86L97.46 271.58C97.46 271.58 99.28 272.92 100.38 273.82C100.32 274.04 100.1 274.14 99.8 274.14H85.6L85.44 273.58ZM86.7 267.88H96.46L98.04 265.94C98.04 265.94 99.78 267.18 100.9 268.12C100.84 268.34 100.62 268.44 100.3 268.44H86.42L86.7 267.88ZM90.82 263.04L94.76 263.4C94.72 263.7 94.58 263.9 94.02 263.98V280.6H90.82V263.04ZM86.12 263.6L90.16 264.76C90.08 265.02 89.82 265.2 89.34 265.2C87.86 269.06 85.74 271.68 82.98 273.46L82.78 273.32C84.2 270.94 85.58 267.22 86.12 263.6ZM111.76 265.8H120.22V266.36H111.76V265.8ZM116.06 266.84L119.16 267.46C119.1 267.72 118.88 267.9 118.44 267.9C117.84 268.58 117 269.46 116.14 270.1H115.64C115.84 269.18 116 267.8 116.06 266.84ZM113.12 269.86H118.3L119.52 268.36C119.52 268.36 120.9 269.38 121.74 270.1C121.68 270.32 121.48 270.42 121.2 270.42H113.12V269.86ZM113.16 273.14H118.26L119.38 271.6C119.38 271.6 120.66 272.66 121.4 273.38C121.36 273.6 121.14 273.7 120.88 273.7H113.16V273.14ZM113.16 276.4H118.26L119.38 274.86C119.38 274.86 120.66 275.92 121.4 276.64C121.36 276.86 121.14 276.96 120.88 276.96H113.16V276.4ZM113.12 279.9H118.58L119.86 278.16C119.86 278.16 121.28 279.34 122.12 280.14C122.06 280.36 121.84 280.46 121.56 280.46H113.12V279.9ZM115.54 269.86H118.04V280.14H115.54V269.86ZM114.16 269.86V281.14C114.16 281.32 113.4 281.88 112.12 281.88H111.66V271.4L112.94 269.3L114.42 269.86H114.16ZM119.18 265.8H118.96L120.18 264.58L122.3 266.6C122.14 266.78 121.96 266.82 121.54 266.84C120.84 267.34 119.64 268.1 118.82 268.52L118.64 268.4C118.8 267.7 119.06 266.48 119.18 265.8ZM103.04 264.82H107.94L109.24 263.18C109.24 263.18 110.68 264.28 111.56 265.06C111.52 265.28 111.3 265.38 111 265.38H103.2L103.04 264.82ZM105.24 264.82H108.02V265.14C107.48 269.6 105.96 273.32 103.14 276.26L102.88 276.08C104.32 273.04 104.96 268.78 105.24 264.82ZM105.6 270.84H109.18V271.4H105.6V270.84ZM105.6 277.86H109.18V278.42H105.6V277.86ZM107.96 270.84H107.8L108.86 269.74L110.94 271.34C110.86 271.44 110.68 271.56 110.42 271.62V279.6C110.4 279.76 109.22 280.26 108.38 280.26H107.96V270.84ZM106.78 270.84V280.48C106.78 280.64 106.04 281.18 104.82 281.18H104.38V272.24L105.68 270.32L107.04 270.84H106.78ZM114.38 262.88L117.76 263.84C117.7 264.08 117.52 264.24 117.02 264.26C115.94 267.34 113.94 271.06 110.32 273.16L110.14 272.98C112.6 270.26 113.92 266.06 114.38 262.88ZM111.8 264.68H112.06C112.98 266.84 112.48 268.4 111.56 268.94C110.92 269.32 109.9 269.1 109.64 268.26C109.42 267.48 109.9 266.9 110.56 266.58C111.16 266.28 111.84 265.48 111.8 264.68ZM127.86 272.46C129.32 272.48 132.56 272.44 135.92 272.34L135.94 272.6C134.66 273.14 132.74 273.78 129.78 274.68C129.64 274.94 129.42 275.08 129.2 275.12L127.86 272.46ZM122.94 272.68C123.98 272.38 126.48 271.56 128.94 270.68L129 270.86C128.22 271.74 126.98 273.04 125.12 274.74C125.08 275.02 124.9 275.24 124.68 275.34L122.94 272.68ZM134.04 270.96C139.66 272.18 136.84 276.38 134.68 274.36C134.76 273.2 134.38 271.94 133.88 271.06L134.04 270.96ZM136.1 270.42C143.16 270.5 142.2 275.44 139.54 274.42C138.76 273.08 137.16 271.5 135.96 270.56L136.1 270.42ZM124.58 266.76C130.36 267.74 127.88 272.08 125.62 270.24C125.52 269.04 124.98 267.76 124.42 266.86L124.58 266.76ZM128.6 267.8C133.76 268.32 131.64 272.24 129.58 270.68C129.52 269.68 128.98 268.58 128.44 267.9L128.6 267.8ZM123.04 276.64H137.68L139.22 274.72C139.22 274.72 140.96 276 142.04 276.88C141.98 277.1 141.74 277.2 141.44 277.2H123.2L123.04 276.64ZM123.74 265.64H136.96L138.5 263.76C138.5 263.76 140.22 265.02 141.28 265.88C141.22 266.1 141 266.2 140.7 266.2H123.9L123.74 265.64ZM130.92 274.64L134.58 274.94C134.54 275.18 134.42 275.38 133.92 275.44V281.24C133.92 281.4 132.58 281.86 131.44 281.86H130.92V274.64ZM130.92 262.96L134.56 263.24C134.54 263.48 134.42 263.66 133.92 263.74V266.04H130.92V262.96ZM131.24 265.74L134.42 267.12C134.32 267.34 134.04 267.5 133.6 267.46C132.58 268.18 131.38 268.86 130.36 269.3L130.12 269.14C130.48 268.34 130.9 266.98 131.24 265.74ZM137.96 266.4L141.18 268.14C141.06 268.36 140.78 268.5 140.32 268.42C139.12 269.08 137.72 269.74 136.56 270.16L136.36 270C136.82 269.14 137.42 267.72 137.96 266.4ZM133.6 267.86L136.36 269.28C136.24 269.5 135.96 269.6 135.52 269.52C134.24 270.66 132 272.22 130.04 273.28H129.72C131.12 271.78 132.7 269.5 133.6 267.86Z" fill="#F16A01" fill-opacity="0.9" shape-rendering="crispEdges"/>
</g>
<g filter="url(#filter2_d_3_2)">
<path d="M32.508 300.416C32.508 299.856 32.572 299.432 32.7 299.144C32.844 298.84 33.06 298.592 33.348 298.4C33.636 298.208 34.004 298.008 34.452 297.8L39.108 295.496C39.22 295.448 39.3 295.392 39.348 295.328C39.396 295.264 39.42 295.176 39.42 295.064V291.752C39.42 291.56 39.316 291.464 39.108 291.464H32.82V289.76L38.292 289.664C39.028 289.648 39.62 289.76 40.068 290C40.532 290.224 40.868 290.56 41.076 291.008C41.3 291.456 41.412 291.992 41.412 292.616V294.8C41.412 295.44 41.268 295.928 40.98 296.264C40.692 296.6 40.196 296.936 39.492 297.272L34.908 299.552C34.716 299.632 34.596 299.728 34.548 299.84C34.516 299.952 34.5 300.136 34.5 300.392V303.296H41.388V305H32.508V300.416ZM51.3984 291.368H46.3584C46.2144 291.368 46.1424 291.448 46.1424 291.608V303.152C46.1424 303.312 46.2144 303.392 46.3584 303.392H51.3984C51.5424 303.392 51.6144 303.312 51.6144 303.152V291.608C51.6144 291.448 51.5424 291.368 51.3984 291.368ZM44.1264 302.408V292.352C44.1264 291.36 44.3744 290.656 44.8704 290.24C45.3664 289.808 46.1344 289.592 47.1744 289.592H50.5584C51.6144 289.592 52.3904 289.808 52.8864 290.24C53.3824 290.656 53.6304 291.36 53.6304 292.352V302.408C53.6304 303.4 53.3824 304.112 52.8864 304.544C52.3904 304.96 51.6144 305.168 50.5584 305.168H47.1744C46.1344 305.168 45.3664 304.96 44.8704 304.544C44.3744 304.112 44.1264 303.4 44.1264 302.408ZM64.5994 302.048C64.5994 303.04 64.3114 303.8 63.7354 304.328C63.1754 304.856 62.3514 305.112 61.2634 305.096L55.9594 305V303.296H62.2714C62.4794 303.296 62.5834 303.192 62.5834 302.984V298.28C62.5834 298.072 62.4794 297.968 62.2714 297.968H57.3514V296.288H62.1514C62.3594 296.288 62.4634 296.184 62.4634 295.976V291.752C62.4634 291.544 62.3594 291.44 62.1514 291.44H56.0314V289.76L61.2154 289.664C62.3034 289.648 63.1194 289.888 63.6634 290.384C64.2074 290.88 64.4794 291.64 64.4794 292.664V294.872C64.4794 295.816 64.1754 296.496 63.5674 296.912C62.9754 297.312 62.1354 297.512 61.0474 297.512L61.2154 296.792C62.3674 296.792 63.2154 296.992 63.7594 297.392C64.3194 297.776 64.5994 298.464 64.5994 299.456V302.048ZM75.2813 291.368H70.2413C70.0973 291.368 70.0253 291.448 70.0253 291.608V303.152C70.0253 303.312 70.0973 303.392 70.2413 303.392H75.2813C75.4253 303.392 75.4973 303.312 75.4973 303.152V291.608C75.4973 291.448 75.4253 291.368 75.2813 291.368ZM68.0093 302.408V292.352C68.0093 291.36 68.2573 290.656 68.7533 290.24C69.2493 289.808 70.0173 289.592 71.0573 289.592H74.4413C75.4973 289.592 76.2733 289.808 76.7693 290.24C77.2653 290.656 77.5133 291.36 77.5133 292.352V302.408C77.5133 303.4 77.2653 304.112 76.7693 304.544C76.2733 304.96 75.4973 305.168 74.4413 305.168H71.0573C70.0173 305.168 69.2493 304.96 68.7533 304.544C68.2573 304.112 68.0093 303.4 68.0093 302.408ZM87.2582 288.8H89.0582L81.4982 307.304H79.6502L87.2582 288.8ZM98.5134 302.048C98.5134 303.04 98.2254 303.8 97.6494 304.328C97.0894 304.856 96.2654 305.112 95.1774 305.096L89.8734 305V303.296H96.1854C96.3934 303.296 96.4974 303.192 96.4974 302.984V298.28C96.4974 298.072 96.3934 297.968 96.1854 297.968H91.2654V296.288H96.0654C96.2734 296.288 96.3774 296.184 96.3774 295.976V291.752C96.3774 291.544 96.2734 291.44 96.0654 291.44H89.9454V289.76L95.1294 289.664C96.2174 289.648 97.0334 289.888 97.5774 290.384C98.1214 290.88 98.3934 291.64 98.3934 292.664V294.872C98.3934 295.816 98.0894 296.496 97.4814 296.912C96.8894 297.312 96.0494 297.512 94.9614 297.512L95.1294 296.792C96.2814 296.792 97.1294 296.992 97.6734 297.392C98.2334 297.776 98.5134 298.464 98.5134 299.456V302.048ZM108.211 288.8H110.011L102.451 307.304H100.603L108.211 288.8ZM111.235 300.416C111.235 299.856 111.299 299.432 111.427 299.144C111.571 298.84 111.787 298.592 112.075 298.4C112.363 298.208 112.731 298.008 113.179 297.8L117.835 295.496C117.947 295.448 118.027 295.392 118.075 295.328C118.123 295.264 118.147 295.176 118.147 295.064V291.752C118.147 291.56 118.043 291.464 117.835 291.464H111.547V289.76L117.019 289.664C117.755 289.648 118.347 289.76 118.795 290C119.259 290.224 119.595 290.56 119.803 291.008C120.027 291.456 120.139 291.992 120.139 292.616V294.8C120.139 295.44 119.995 295.928 119.707 296.264C119.419 296.6 118.923 296.936 118.219 297.272L113.635 299.552C113.443 299.632 113.323 299.728 113.275 299.84C113.243 299.952 113.227 300.136 113.227 300.392V303.296H120.115V305H111.235V300.416ZM131.373 302.048C131.373 303.04 131.085 303.8 130.509 304.328C129.949 304.856 129.125 305.112 128.037 305.096L122.709 305V303.296H129.045C129.253 303.296 129.357 303.192 129.357 302.984V291.776C129.357 291.568 129.253 291.464 129.045 291.464H124.509C124.301 291.464 124.197 291.568 124.197 291.776V297.248C124.197 297.456 124.301 297.56 124.509 297.56H129.621V299.216H125.421C124.333 299.216 123.517 299 122.973 298.568C122.445 298.12 122.181 297.384 122.181 296.36V292.664C122.181 291.64 122.453 290.888 122.997 290.408C123.541 289.928 124.357 289.688 125.445 289.688H128.109C129.197 289.688 130.013 289.904 130.557 290.336C131.101 290.752 131.373 291.48 131.373 292.52V302.048Z" fill="#F16A01" fill-opacity="0.9" shape-rendering="crispEdges"/>
</g>
<g filter="url(#filter3_d_3_2)">
<path d="M150.396 305.52L154.516 301.2H164.396L168.276 305.52H150.396ZM149.196 285.88L153.516 290.04V299.84L149.196 303.76V285.88ZM169.556 303.76L165.236 299.64V289.8L169.556 285.88V303.76ZM153.836 287.32C152.902 286.573 151.956 285.84 150.996 285.12L153.836 283H164.756L167.556 285.12L164.756 287.32H153.836ZM150.356 264.88H168.236L164.276 269.2H154.476L150.356 264.88ZM149.076 284.48V266.6L153.396 270.48V280.4L149.076 284.48ZM177.588 305.52L181.708 301.2H191.588L195.468 305.52H177.588ZM176.388 285.88L180.708 290.04V299.84L176.388 303.76V285.88ZM196.748 303.76L192.428 299.64V289.8L196.748 285.88V303.76ZM177.548 264.88H195.428L191.468 269.2H181.668L177.548 264.88ZM176.268 284.48V266.6L180.588 270.48V280.4L176.268 284.48ZM196.628 266.6V284.48L192.308 280.6V270.72L196.628 266.6Z" fill="#F16A01" fill-opacity="0.9" shape-rendering="crispEdges"/>
</g>
<g filter="url(#filter4_d_3_2)">
<path d="M203.12 296.82V292.8C203.12 292.253 203.253 291.86 203.52 291.62C203.8 291.367 204.247 291.24 204.86 291.24H206.5C207.113 291.24 207.553 291.367 207.82 291.62C208.1 291.86 208.247 292.253 208.26 292.8L208.28 296.82C208.293 297.34 208.153 297.727 207.86 297.98C207.567 298.233 207.113 298.36 206.5 298.36H204.86C204.247 298.36 203.8 298.233 203.52 297.98C203.253 297.727 203.12 297.34 203.12 296.82ZM206.74 292.4H204.64C204.507 292.4 204.44 292.46 204.44 292.58V297.02C204.44 297.14 204.507 297.2 204.64 297.2H206.74C206.873 297.2 206.94 297.14 206.94 297.02V292.58C206.94 292.46 206.873 292.4 206.74 292.4ZM211.22 302.52V298.5C211.22 297.967 211.353 297.573 211.62 297.32C211.9 297.067 212.34 296.94 212.94 296.94H214.6C215.213 296.94 215.653 297.067 215.92 297.32C216.2 297.573 216.34 297.967 216.34 298.5V302.52C216.34 303.04 216.2 303.427 215.92 303.68C215.653 303.933 215.213 304.06 214.6 304.06H212.94C212.34 304.06 211.9 303.933 211.62 303.68C211.353 303.427 211.22 303.04 211.22 302.52ZM214.84 298.1H212.72C212.6 298.1 212.54 298.16 212.54 298.28V302.72C212.54 302.84 212.6 302.9 212.72 302.9H214.84C214.96 302.9 215.02 302.84 215.02 302.72V298.28C215.02 298.16 214.96 298.1 214.84 298.1ZM212.54 291.16H213.9L206.98 304.14H205.62L212.54 291.16Z" fill="#F16A01" fill-opacity="0.9" shape-rendering="crispEdges"/>
</g>
</g>
<defs>
<filter id="filter0_d_3_2" x="12.5" y="248" width="215" height="72" filterUnits="userSpaceOnUse" color-interpolation-filters="sRGB">
<feFlood flood-opacity="0" result="BackgroundImageFix"/>
<feColorMatrix in="SourceAlpha" type="matrix" values="0 0 0 0 0 0 0 0 0 0 0 0 0 0 0 0 0 0 127 0" result="hardAlpha"/>
<feOffset/>
<feGaussianBlur stdDeviation="5"/>
<feComposite in2="hardAlpha" operator="out"/>
<feColorMatrix type="matrix" values="0 0 0 0 0 0 0 0 0 0 0 0 0 0 0 0 0 0 1 0"/>
<feBlend mode="normal" in2="BackgroundImageFix" result="effect1_dropShadow_3_2"/>
<feBlend mode="normal" in="SourceGraphic" in2="effect1_dropShadow_3_2" result="shape"/>
</filter>
<filter id="filter1_d_3_2" x="12.9199" y="252.78" width="140.24" height="39.12" filterUnits="userSpaceOnUse" color-interpolation-filters="sRGB">
<feFlood flood-opacity="0" result="BackgroundImageFix"/>
<feColorMatrix in="SourceAlpha" type="matrix" values="0 0 0 0 0 0 0 0 0 0 0 0 0 0 0 0 0 0 127 0" result="hardAlpha"/>
<feOffset/>
<feGaussianBlur stdDeviation="5"/>
<feComposite in2="hardAlpha" operator="out"/>
<feColorMatrix type="matrix" values="0 0 0 0 0 0 0 0 0 0 0 0 0 0 0 0 0 0 1 0"/>
<feBlend mode="normal" in2="BackgroundImageFix" result="effect1_dropShadow_3_2"/>
<feBlend mode="normal" in="SourceGraphic" in2="effect1_dropShadow_3_2" result="shape"/>
</filter>
<filter id="filter2_d_3_2" x="22.5081" y="278.8" width="118.865" height="38.5039" filterUnits="userSpaceOnUse" color-interpolation-filters="sRGB">
<feFlood flood-opacity="0" result="BackgroundImageFix"/>
<feColorMatrix in="SourceAlpha" type="matrix" values="0 0 0 0 0 0 0 0 0 0 0 0 0 0 0 0 0 0 127 0" result="hardAlpha"/>
<feOffset/>
<feGaussianBlur stdDeviation="5"/>
<feComposite in2="hardAlpha" operator="out"/>
<feColorMatrix type="matrix" values="0 0 0 0 0 0 0 0 0 0 0 0 0 0 0 0 0 0 1 0"/>
<feBlend mode="normal" in2="BackgroundImageFix" result="effect1_dropShadow_3_2"/>
<feBlend mode="normal" in="SourceGraphic" in2="effect1_dropShadow_3_2" result="shape"/>
</filter>
<filter id="filter3_d_3_2" x="139.076" y="254.88" width="67.6721" height="60.64" filterUnits="userSpaceOnUse" color-interpolation-filters="sRGB">
<feFlood flood-opacity="0" result="BackgroundImageFix"/>
<feColorMatrix in="SourceAlpha" type="matrix" values="0 0 0 0 0 0 0 0 0 0 0 0 0 0 0 0 0 0 127 0" result="hardAlpha"/>
<feOffset/>
<feGaussianBlur stdDeviation="5"/>
<feComposite in2="hardAlpha" operator="out"/>
<feColorMatrix type="matrix" values="0 0 0 0 0 0 0 0 0 0 0 0 0 0 0 0 0 0 1 0"/>
<feBlend mode="normal" in2="BackgroundImageFix" result="effect1_dropShadow_3_2"/>
<feBlend mode="normal" in="SourceGraphic" in2="effect1_dropShadow_3_2" result="shape"/>
</filter>
<filter id="filter4_d_3_2" x="193.12" y="281.16" width="33.22" height="32.98" filterUnits="userSpaceOnUse" color-interpolation-filters="sRGB">
<feFlood flood-opacity="0" result="BackgroundImageFix"/>
<feColorMatrix in="SourceAlpha" type="matrix" values="0 0 0 0 0 0 0 0 0 0 0 0 0 0 0 0 0 0 127 0" result="hardAlpha"/>
<feOffset/>
<feGaussianBlur stdDeviation="5"/>
<feComposite in2="hardAlpha" operator="out"/>
<feColorMatrix type="matrix" values="0 0 0 0 0 0 0 0 0 0 0 0 0 0 0 0 0 0 1 0"/>
<feBlend mode="normal" in2="BackgroundImageFix" result="effect1_dropShadow_3_2"/>
<feBlend mode="normal" in="SourceGraphic" in2="effect1_dropShadow_3_2" result="shape"/>
</filter>
</defs>
</svg>
