<svg width="297" height="168" viewBox="0 0 297 168" fill="none" xmlns="http://www.w3.org/2000/svg">
<rect width="296.5" height="168" fill="black"/>
<path d="M8 33L21.5 8H8V33Z" fill="#CC0019" fill-opacity="0.9"/>
<path d="M28 33L41.5 8H28L14.5 33H28Z" fill="#CC0019" fill-opacity="0.9"/>
<path d="M48 33L61.5 8H48L34.5 33H48Z" fill="#CC0019" fill-opacity="0.9"/>
<path d="M68 33L81.5 8H68L54.5 33H68Z" fill="#CC0019" fill-opacity="0.9"/>
<path d="M88 33L101.5 8H88L74.5 33H88Z" fill="#CC0019" fill-opacity="0.9"/>
<path d="M108 33L121.5 8H108L94.5 33H108Z" fill="#CC0019" fill-opacity="0.9"/>
<path d="M128 33L141.5 8H128L114.5 33H128Z" fill="#CC0019" fill-opacity="0.9"/>
<path d="M148 33L161.5 8H148L134.5 33H148Z" fill="#CC0019" fill-opacity="0.9"/>
<path d="M168 33L181.5 8H168L154.5 33H168Z" fill="#CC0019" fill-opacity="0.9"/>
<path d="M188 33L201.5 8H188L174.5 33H188Z" fill="#CC0019" fill-opacity="0.9"/>
<path d="M208 33L221.5 8H208L194.5 33H208Z" fill="#CC0019" fill-opacity="0.9"/>
<path d="M228 33L241.5 8H228L214.5 33H228Z" fill="#CC0019" fill-opacity="0.9"/>
<path d="M248 33L261.5 8H248L234.5 33H248Z" fill="#CC0019" fill-opacity="0.9"/>
<path d="M268 33L281.5 8H268L254.5 33H268Z" fill="#CC0019" fill-opacity="0.9"/>
<path d="M288.5 33V8L274.5 33H288.5Z" fill="#CC0019" fill-opacity="0.9"/>
<path d="M12.002 64.832H52.714L57.082 59.4C57.082 59.4 62.01 63.04 65.034 65.504C64.866 66.12 64.25 66.4 63.41 66.4H12.45L12.002 64.832ZM16.986 54.752H49.074L53.33 49.432C53.33 49.432 58.202 52.96 61.114 55.424C60.946 56.04 60.33 56.32 59.49 56.32H17.434L16.986 54.752ZM34.178 45.176L44.426 45.96C44.314 46.744 43.922 47.304 42.41 47.584V65.392H34.178V45.176ZM40.954 64.832H48.906V89.024C48.906 94.176 47.562 97.648 38.938 98.264C38.826 95.744 38.49 93.84 37.482 92.664C36.53 91.544 35.298 90.704 31.994 90.144V89.416C31.994 89.416 38.49 89.808 39.834 89.808C40.674 89.808 40.954 89.416 40.954 88.8V64.832ZM50.81 70.488C70.69 76.424 63.69 91.992 56.074 85.664C55.402 80.512 52.938 74.968 50.306 70.768L50.81 70.488ZM20.402 70.32L29.474 73.96C29.194 74.632 28.41 75.08 27.178 74.968C23.258 81.464 17.994 85.832 12.226 88.632L11.666 88.128C15.082 83.984 18.554 77.264 20.402 70.32ZM28.69 64.832H36.642C36.194 79.504 35.354 90.872 16.594 98.208L16.034 97.48C28.97 88.576 28.578 77.88 28.69 64.832ZM69.346 80.68C70.186 80.68 70.41 80.68 71.026 79.56C72.146 77.6 72.146 77.6 79.93 58.504L80.826 58.672C79.426 64.44 77.13 75.024 76.626 77.768C76.29 79.504 76.01 81.464 76.066 82.808C76.234 86.056 78.754 88.016 78.53 93.28C78.418 96.248 76.29 98.208 73.434 98.208C72.146 98.208 70.578 97.48 70.13 95.24C71.25 89.248 71.026 83.536 69.794 82.64C69.01 82.08 68.114 81.8 66.938 81.688V80.68C66.938 80.68 68.73 80.68 69.346 80.68ZM69.906 45.568C85.922 48.088 79.594 60.016 73.322 55.312C72.818 51.952 71.026 48.368 69.458 45.848L69.906 45.568ZM66.882 58.336C81.834 61.248 75.282 72.504 69.458 67.688C69.346 64.496 67.946 60.968 66.378 58.616L66.882 58.336ZM84.69 68.92H94.714V70.488H84.69V68.92ZM85.082 76.704H94.826V78.272H85.082V76.704ZM80.378 53.744H93.594L96.506 49.152C96.506 49.152 99.81 52.344 101.658 54.416C101.49 55.032 100.93 55.312 100.146 55.312H80.826L80.378 53.744ZM78.25 84.88H93.314L96.226 80.064C96.226 80.064 99.642 83.424 101.434 85.552C101.266 86.168 100.706 86.448 99.922 86.448H78.698L78.25 84.88ZM105.242 49.656H114.202V51.224H105.242V49.656ZM105.242 61.864H114.202V63.432H105.242V61.864ZM105.242 74.408H113.922V75.976H105.242V74.408ZM110.786 49.656H110.226L113.418 46.016L119.97 51.168C119.578 51.616 118.906 52.064 117.842 52.288V90.2C117.842 95.016 116.89 97.592 109.61 98.264C109.498 95.968 109.274 94.232 108.658 93.224C108.042 92.216 107.146 91.432 104.962 90.984V90.256C104.962 90.256 108.882 90.48 109.778 90.48C110.618 90.48 110.786 90.144 110.786 89.472V49.656ZM101.154 49.656V49.096V46.968L108.658 49.656H107.594V69.704C107.594 80.176 106.81 91.152 94.378 98.32L93.818 97.872C100.482 90.256 101.154 80.4 101.154 69.704V49.656ZM86.706 45.68L95.05 46.408C94.994 47.024 94.602 47.472 93.482 47.696V61.696H86.706V45.68ZM86.65 76.704H93.426V96.584C93.37 96.864 91.354 97.984 87.882 97.984H86.65V76.704ZM81.386 61.248V58.672L87.826 61.248H95.386V62.816H87.602V77.712C87.602 78.272 84.914 79.672 82.282 79.672H81.386V61.248ZM92.474 61.248H93.482L96.114 58.336L100.874 63.096C100.482 63.544 99.698 63.88 98.858 64.048V77.6C98.746 77.88 96.282 79.056 93.65 79.056H92.474V61.248ZM140.018 58.056H163.706L167.626 52.68C167.626 52.68 172.05 56.32 174.626 58.728C174.458 59.344 173.842 59.624 173.002 59.624H140.466L140.018 58.056ZM140.074 74.352H162.978L166.674 69.312C166.674 69.312 170.818 72.728 173.226 75.024C173.114 75.64 172.498 75.92 171.658 75.92H140.522L140.074 74.352ZM137.386 94.176H164.21L168.298 88.576C168.298 88.576 172.834 92.328 175.522 94.848C175.354 95.464 174.738 95.744 173.898 95.744H137.834L137.386 94.176ZM146.57 45.4C165.666 46.408 160.57 60.912 153.066 56.488C151.89 52.624 148.922 48.424 146.178 45.736L146.57 45.4ZM151.442 58.392H159.73V95.128H151.442V58.392ZM126.186 46.24C143.658 46.296 138.674 59.68 131.45 55.648C130.442 52.4 127.922 48.816 125.794 46.576L126.186 46.24ZM121.986 59.176C138.842 59.456 133.354 72.56 126.466 68.248C125.794 65.056 123.61 61.64 121.594 59.512L121.986 59.176ZM125.794 81.408C126.746 81.408 126.97 81.408 127.642 80.232C129.098 77.936 129.098 77.936 140.802 53.128L141.586 53.352C139.234 60.744 135.146 74.296 134.362 77.712C133.858 79.784 133.354 82.024 133.41 83.48C133.522 86.728 136.21 88.296 136.042 93.336C135.986 96.248 133.69 98.376 130.442 98.376C128.93 98.376 127.25 97.704 126.634 95.464C127.81 89.696 127.586 84.264 126.186 83.368C125.402 82.808 124.338 82.472 123.162 82.416V81.408C123.162 81.408 125.178 81.408 125.794 81.408ZM179.89 50.832H216.178L220.042 46.072C220.042 46.072 224.41 49.264 227.042 51.504C226.93 52.12 226.258 52.4 225.474 52.4H180.338L179.89 50.832ZM177.258 59.736H218.25L222.114 54.976C222.114 54.976 226.482 58.168 229.17 60.408C229.002 61.024 228.386 61.304 227.546 61.304H177.706L177.258 59.736ZM189.858 70.824H216.458V72.392H189.858V70.824ZM189.858 76.928H216.458V78.496H189.858V76.928ZM212.258 64.944H211.698L215.17 61.136L222.45 66.568C222.114 67.016 221.386 67.52 220.21 67.8V79.224C220.154 79.672 216.29 81.24 213.658 81.24H212.258V64.944ZM185.826 64.944V61.808L194.114 64.944H216.626V66.512H193.666V79.616C193.666 80.288 190.138 81.968 186.946 81.968H185.826V64.944ZM198.986 44.952L209.066 45.68C208.954 46.464 208.562 47.024 207.05 47.248V51.728H198.986V44.952ZM190.866 51.84C206.322 53.352 197.81 64.216 191.93 58.84C192.154 56.32 191.37 53.744 190.474 52.064L190.866 51.84ZM207.442 51.84L218.25 53.912C218.082 54.64 217.466 55.144 216.178 55.144C213.994 56.768 210.466 59.008 207.442 60.464H206.938C207.218 58.112 207.442 54.304 207.442 51.84ZM215.618 82.64C235.106 84.544 229.338 99.44 221.778 94.512C220.826 90.368 218.026 85.888 215.226 82.976L215.618 82.64ZM190.474 81.856L199.994 82.528C199.882 83.312 199.378 83.76 198.258 83.928V89.752C198.258 90.424 198.426 90.592 200.106 90.592H205.874C207.554 90.592 209.346 90.592 210.186 90.536C211.026 90.48 211.474 90.368 211.922 89.864C212.594 89.08 213.546 87.344 214.778 84.544H215.338L215.506 89.976C217.634 90.76 218.138 91.6 218.138 93C218.138 96.192 215.226 97.424 204.866 97.424H198.538C191.93 97.424 190.474 96.248 190.474 91.32V81.856ZM185.938 82.752H186.61C189.354 89.64 186.834 94.456 183.306 95.632C180.842 96.472 178.042 95.352 177.482 92.664C177.034 90.088 178.714 88.464 180.898 87.736C183.194 87.12 185.826 85.272 185.938 82.752ZM198.034 80.736C214.554 77.88 211.418 91.488 204.082 88.576C202.906 85.776 200.05 82.696 197.698 81.128L198.034 80.736ZM258.29 49.264V46.072L266.018 49.264H278.338V50.832H265.738V95.464C265.738 96.416 262.882 98.264 259.522 98.264H258.29V49.264ZM261.874 69.032H279.122V70.6H261.874V69.032ZM275.37 69.032H274.754L278.506 65.112L285.17 70.656C284.834 71.272 284.386 71.496 283.154 71.664C281.306 81.968 276.658 92.272 265.122 98.432L264.674 97.816C271.842 90.648 274.53 79.392 275.37 69.032ZM268.09 69.032C270.386 81.52 277.498 87.12 285.674 90.928L285.506 91.544C282.37 92.104 279.85 94.456 278.562 98.208C271.73 91.88 268.65 84.6 267.418 69.312L268.09 69.032ZM231.186 62.256H248.602L252.298 56.88C252.298 56.88 256.554 60.52 258.906 62.928C258.738 63.544 258.178 63.824 257.338 63.824H231.634L231.186 62.256ZM231.242 74.24H249.162L252.634 69.536C252.634 69.536 256.61 72.728 258.906 74.912C258.738 75.528 258.178 75.808 257.394 75.808H231.69L231.242 74.24ZM231.97 83.704H248.602L252.13 78.608C252.13 78.608 256.106 82.08 258.402 84.376C258.234 84.992 257.674 85.272 256.834 85.272H232.418L231.97 83.704ZM240.426 45.232L249.778 46.016C249.722 46.688 249.33 47.192 247.986 47.416V62.536H240.426V45.232ZM240.426 74.24H247.986V96.416C247.93 96.808 245.69 98.264 241.826 98.264H240.426V74.24ZM235.274 63.992C249.274 68.024 241.714 78.104 236.45 72.896C236.562 69.872 235.722 66.568 234.77 64.216L235.274 63.992ZM247.09 63.096L255.994 65.728C255.77 66.4 255.098 66.848 253.866 66.792C251.906 69.144 248.77 72.56 245.802 75.136H245.13C245.914 71.72 246.698 66.568 247.09 63.096ZM232.474 53.52H248.546L251.906 48.704C251.906 48.704 255.714 52.008 257.842 54.192C257.73 54.808 257.114 55.088 256.33 55.088H232.922L232.474 53.52ZM274.586 49.264H274.026L277.274 45.568L284.386 50.888C284.05 51.336 283.322 51.84 282.146 52.064V58.504C282.146 62.872 281.026 65.448 273.018 66.064C272.906 63.936 272.682 62.368 271.842 61.36C271.058 60.352 270.05 59.568 267.362 59.12V58.392C267.362 58.392 272.178 58.728 273.578 58.728C274.362 58.728 274.586 58.392 274.586 57.72V49.264Z" fill="#CC0019" fill-opacity="0.9"/>
<rect x="9" y="106" width="278.5" height="24" stroke="#CC0019" stroke-opacity="0.9" stroke-width="2"/>
<path d="M109.928 126.168H107.384C106.424 126.168 105.72 125.984 105.272 125.616C104.84 125.248 104.624 124.6 104.624 123.672V110.76H106.784V124.008C106.784 124.168 106.864 124.248 107.024 124.248H111.008C111.168 124.248 111.248 124.168 111.248 124.008V110.76H113.336V124.008C113.336 124.168 113.416 124.248 113.576 124.248H117.56C117.72 124.248 117.8 124.168 117.8 124.008L117.776 110.76H119.936L119.96 123.648C119.96 124.576 119.744 125.232 119.312 125.616C118.896 125.984 118.216 126.168 117.272 126.168H114.632C113.768 126.168 113.128 125.968 112.712 125.568C112.296 125.168 112.088 124.528 112.088 123.648H112.472C112.472 124.528 112.264 125.168 111.848 125.568C111.448 125.968 110.808 126.168 109.928 126.168ZM133.918 126H131.782L130.798 121.824L131.086 122.064H124.486L124.798 121.824L123.694 126H121.702L125.278 113.04C125.454 112.416 125.63 111.936 125.806 111.6C125.998 111.264 126.254 111.032 126.574 110.904C126.91 110.76 127.398 110.696 128.038 110.712L130.246 110.76L133.918 126ZM127.198 112.824L125.134 120.48L124.942 120.24H130.702L130.51 120.48L128.638 112.608H127.438C127.358 112.608 127.302 112.624 127.27 112.656C127.238 112.688 127.214 112.744 127.198 112.824ZM138.052 126H135.916V110.76L142.324 110.664C143.444 110.648 144.284 110.904 144.844 111.432C145.42 111.944 145.708 112.72 145.708 113.76V116.712C145.708 117.624 145.468 118.344 144.988 118.872C144.524 119.4 143.82 119.712 142.876 119.808L142.9 119.352C143.316 119.448 143.636 119.632 143.86 119.904C144.1 120.176 144.316 120.584 144.508 121.128L146.212 126H144.052L142.06 120.168C142.028 120.056 141.988 119.984 141.94 119.952C141.892 119.904 141.804 119.88 141.676 119.88H137.596L138.052 119.472V126ZM138.052 112.104V118.44L137.692 118.056H143.212C143.42 118.056 143.524 117.952 143.524 117.744V112.824C143.524 112.632 143.42 112.536 143.212 112.536H137.716L138.052 112.104ZM157.351 122.904V110.76H159.223V126H157.735L150.031 114.024L150.487 113.832V126H148.615V110.76H150.103L157.783 122.712L157.351 122.904ZM164.965 126H162.829V110.76H164.965V126ZM177.273 122.904V110.76H179.145V126H177.657L169.953 114.024L170.409 113.832V126H168.537V110.76H170.025L177.705 122.712L177.273 122.904ZM189.062 126.168H185.39C184.302 126.168 183.494 125.944 182.966 125.496C182.454 125.048 182.198 124.32 182.198 123.312V113.448C182.198 112.424 182.454 111.696 182.966 111.264C183.494 110.816 184.302 110.592 185.39 110.592H192.014V112.512H184.622C184.462 112.512 184.382 112.592 184.382 112.752V124.008C184.382 124.168 184.462 124.248 184.622 124.248H189.95C190.11 124.248 190.19 124.168 190.19 124.008V119.4L190.43 119.736H187.598V117.936H192.278V123.312C192.278 124.32 192.014 125.048 191.486 125.496C190.974 125.944 190.166 126.168 189.062 126.168Z" fill="#CC0019" fill-opacity="0.9"/>
<path d="M8 160L21.5 135H8V160Z" fill="#CC0019" fill-opacity="0.9"/>
<path d="M28 160L41.5 135H28L14.5 160H28Z" fill="#CC0019" fill-opacity="0.9"/>
<path d="M48 160L61.5 135H48L34.5 160H48Z" fill="#CC0019" fill-opacity="0.9"/>
<path d="M68 160L81.5 135H68L54.5 160H68Z" fill="#CC0019" fill-opacity="0.9"/>
<path d="M88 160L101.5 135H88L74.5 160H88Z" fill="#CC0019" fill-opacity="0.9"/>
<path d="M108 160L121.5 135H108L94.5 160H108Z" fill="#CC0019" fill-opacity="0.9"/>
<path d="M128 160L141.5 135H128L114.5 160H128Z" fill="#CC0019" fill-opacity="0.9"/>
<path d="M148 160L161.5 135H148L134.5 160H148Z" fill="#CC0019" fill-opacity="0.9"/>
<path d="M168 160L181.5 135H168L154.5 160H168Z" fill="#CC0019" fill-opacity="0.9"/>
<path d="M188 160L201.5 135H188L174.5 160H188Z" fill="#CC0019" fill-opacity="0.9"/>
<path d="M208 160L221.5 135H208L194.5 160H208Z" fill="#CC0019" fill-opacity="0.9"/>
<path d="M228 160L241.5 135H228L214.5 160H228Z" fill="#CC0019" fill-opacity="0.9"/>
<path d="M248 160L261.5 135H248L234.5 160H248Z" fill="#CC0019" fill-opacity="0.9"/>
<path d="M268 160L281.5 135H268L254.5 160H268Z" fill="#CC0019" fill-opacity="0.9"/>
<path d="M288.5 160V135L274.5 160H288.5Z" fill="#CC0019" fill-opacity="0.9"/>
</svg>
